<?xml version="1.0" encoding="UTF-8"?>
<svg id="_Слой_1" data-name="Слой 1" xmlns="http://www.w3.org/2000/svg" viewBox="0 0 512 512">
  <defs>
    <style>
      .cls-1 {
        fill: #169adb;
      }

      .cls-1, .cls-2 {
        stroke-width: 0px;
      }

      .cls-2 {
        fill: #d83a3a;
      }
    </style>
  </defs>
  <path class="cls-2" d="m351.94,159.67c-52.98-52.98-138.89-52.97-191.89,0-52.97,53-52.93,138.89.03,191.87,52.97,53,138.87,52.98,191.89-.02,52.95-52.97,52.95-138.86-.03-191.86Zm-23.91,167.97c-39.78,39.78-104.28,39.81-144.07.02-39.78-39.78-39.79-104.28.03-144.11,39.78-39.75,104.28-39.78,144.07.02,39.78,39.78,39.79,104.28-.03,144.07Z"/>
  <path class="cls-1" d="m419.77,268.48c-2.3,29.89-12.81,59.24-31.43,84.49l19.55,109.47,22.44-22.43-.02-100.51c.11-.23.2-.45.31-.67.83-1.67,1.54-3.33,2.32-5.01.25-.59.5-1.15.75-1.73.28-.69.61-1.35.89-2.06.31-.72.61-1.48.87-2.26.11-.26.25-.56.36-.84.22-.56.47-1.15.68-1.7.19-.53.42-1.04.61-1.59l72.69,40v-32.38l-90.02-62.77ZM104.13,48.84l-.02-.06-22.44,22.45.02,100.51c-.11.23-.17.45-.31.67-.79,1.65-1.54,3.33-2.32,5.01-.22.59-.51,1.15-.76,1.73-.26.69-.59,1.35-.87,2.06-.31.72-.58,1.48-.9,2.24-.08.28-.22.58-.33.86-.22.56-.45,1.12-.67,1.68-.2.54-.44,1.06-.62,1.6L2.21,147.59v32.41l89.99,62.73c2.35-29.89,12.81-59.26,31.45-84.51l-19.52-109.39Zm-10.57,231.51L2.21,216.69v31.64l71.09,71.07c.03.17.11.3.17.48.98,2.85,2.04,5.65,3.16,8.42l.23.56c.14.3.22.53.34.83.45,1.06.89,2.1,1.32,3.14.14.28.26.58.37.84.25.59.5,1.12.75,1.68v.05L0,358.53l23.07,23.07,107.99-19.29c-20.54-23.96-33.04-52.48-37.51-81.97Zm344.98-88.99c-.98-2.85-2.04-5.65-3.16-8.42-.08-.19-.16-.39-.23-.58-.11-.25-.22-.51-.34-.81-.44-1.04-.87-2.1-1.34-3.14-.12-.3-.25-.58-.36-.84-.25-.59-.48-1.12-.75-1.68t-.02-.05l79.67-23.14-23.06-23.06-108.05,19.27c20.57,23.98,33.05,52.48,37.52,81.97l91.37,63.69v-31.67l-71.09-71.07c0-.17-.09-.33-.17-.48Z"/>
  <path class="cls-1" d="m381.95,488.38l-22.86,22.86-23.15-79.68c-.08.05-.19.08-.26.12-2.04.92-4.06,1.79-6.12,2.63-.11.05-.2.09-.31.14-.64.28-1.28.5-1.87.76-.12-.02-.2.05-.28.09-.06.02-.11.03-.17.05-.53.22-1.06.4-1.59.62-.34.12-.68.26-1.04.4-.19.06-.42.16-.62.23-1.23.48-2.48.93-3.74,1.39l-71.07,71.04h-100.7l39.79-72.35c-.14-.05-.3-.11-.4-.16-.36-.14-.72-.28-1.07-.4-.89-.31-1.76-.69-2.65-1.04-.56-.23-1.12-.47-1.67-.69-.45-.19-.9-.37-1.34-.54-.41-.14-.75-.33-1.12-.47-.87-.39-1.71-.76-2.58-1.17-.51-.2-1-.45-1.49-.65-.31-.14-.64-.28-.97-.44-.05-.03-.12-.05-.19-.11-.65-.26-1.29-.58-1.93-.89-.22-.11-.45-.19-.64-.3-.06-.03-.11-.06-.19-.08h-100.5l-22.22-22.22,109.61-19.57c25.28,18.62,54.62,29.1,84.52,31.42l-39.86,57.17h36.65l40.81-58.52c29.52-4.47,57.99-16.95,81.97-37.52l19.24,107.86Z"/>
  <path class="cls-1" d="m463,103.7l-109.65,19.57c-25.24-18.62-54.58-29.1-84.48-31.43l40.11-57.53h-36.68l-41.06,58.9c-29.47,4.47-57.98,16.95-81.96,37.49l-19.23-107.75-.02-.11L152.9,0l.03.14,23.12,79.54c.08-.05.19-.08.26-.12,2.04-.92,4.06-1.79,6.12-2.62.12-.09.2-.11.31-.16.64-.28,1.28-.5,1.87-.76.12-.02.19-.08.31-.09.03-.02.08-.03.14-.05.53-.22,1.06-.4,1.59-.65.33-.09.69-.23,1.04-.37.2-.08.42-.16.64-.23,1.21-.48,2.46-.95,3.72-1.39L263.13,2.19h100.7l-39.79,72.35c.16.03.3.11.42.16.34.14.7.28,1.06.4.89.31,1.76.69,2.65,1.04.59.23,1.14.45,1.67.69.45.19.9.37,1.34.54.4.14.76.31,1.12.47.9.39,1.71.76,2.6,1.17.5.2,1,.42,1.49.64.31.12.62.28.95.42.05.06.12.08.2.11.64.3,1.28.61,1.95.92.2.09.42.19.61.28.06.05.11.08.19.09h100.5l22.23,22.23Z"/>
  <path class="cls-2" d="m307.32,306.91c-28.34,28.34-74.28,28.34-102.6,0-28.32-28.34-28.34-74.26-.02-102.6,28.34-28.32,74.28-28.32,102.6,0,28.34,28.34,28.34,74.26.02,102.6Z"/>
</svg>